<svg xmlns="http://www.w3.org/2000/svg" viewBox="0 0 355 355"><defs><style>.a{fill:#e42918;}.b{fill:#f5f5f5;}</style></defs><path class="a" d="M134.9,349.8C39.7,326.2-18.3,230,5.2,134.9S125-18.3,220.1,5.2a177.5,177.5,0,1,1-85.2,344.6"/><path class="a" d="M117.9,344.7V10.3A177.6,177.6,0,0,0,5.2,134.9c-22.1,89.3,27.7,179.6,112.7,209.8"/><path class="b" d="M214,3.8l-1.1-.2-2-.4L209.7,3l-2-.4-1-.2L204.1,2h-.5l-3.1-.5h-.8l-2.3-.2-1-.2-2-.2h-1.2l-2-.2h-1L187.8.3h-.7L184,.1H170.8l-6.1.4h-.8l-2.2.2h-1l-2.1.2h-.9l-2.2.3h-.8q-3,.3-6,.9h-.5l-2.5.5h-.8l-2.1.4-.9.2-2.2.5H139l-2.7.7h-.2l-2.8.7h0c-5.2,1.4-10.4,2.9-15.4,4.7V344.7c5.5,1.9,11.2,3.6,17,5.1a175.6,175.6,0,0,0,70.5,3h.3l2.5-.4h.5l2.3-.5h.7l2.2-.5h.8l2.1-.5.9-.2,2-.5,1.4-.3,2.2-.6,2.2-.6.9-.3,2-.6,1-.2,2-.7.9-.3,2-.6,1-.4,2-.7h.4l1.3-.5V11l-1.3-.4h0l-3.1-1.1h-.3L230.2,8h-.6l-3.9-1.2-.8-.2-4.8-1.3-3-.7-1-.2L214,3.8"/><path class="a" d="M179.3,244.3h2.3l-.8-30.5,2.2-1.9,27.7,3.4-2.5-8.4a4.1,4.1,0,0,1,1.3-3.9l27.8-23.6-5.8-2.9c-2.5-.9-1.8-2.4-.9-6l4.3-16.1L218.7,158a2.4,2.4,0,0,1-2.8-1.8l-2.1-7.6L201,163.5c-1.8,2.4-5.5,2.4-4.3-3.1l5.4-30.3-7.3,4c-2,1.2-4.1,1.4-5.2-.8l-10.3-19.6L169,133.3c-1.1,2.2-3.2,2-5.2.8l-7.3-4,5.4,30.3c1.1,5.5-2.5,5.5-4.3,3.1l-12.8-14.9-2.1,7.6a2.5,2.5,0,0,1-2.8,1.8l-16.2-3.6,4.3,16.1c.9,3.6,1.6,5.1-.9,6l-5.8,2.9L149.1,203a3.8,3.8,0,0,1,1.2,3.9l-2.4,8.4,27.7-3.4,2.1,1.9-.7,30.5Z"/></svg>