<svg xmlns="http://www.w3.org/2000/svg" viewBox="0 0 355 355"><defs><style>.a{fill:#2a467d;}.b{fill:#e42918;}.c{fill:#f5f5f5;}</style></defs><path class="a" d="M5.2,134.9C28.8,39.7,125-18.3,220.1,5.2S373.3,125,349.8,220.1,230,373.3,134.9,349.8-18.3,230,5.2,134.9"/><path class="b" d="M10.3,117.9H344.7A177.6,177.6,0,0,0,220.1,5.2C130.8-16.9,40.5,32.9,10.3,117.9"/><path class="c" d="M351.2,214c.1-.4.1-.8.2-1.2s.3-1.3.4-1.9.1-.8.2-1.2.3-1.3.4-2a4.3,4.3,0,0,1,.2-1.1,21.7,21.7,0,0,1,.4-2.5v-.5c.2-1,.3-2.1.5-3.1a2.2,2.2,0,0,1,.1-.8l.3-2.3a3.4,3.4,0,0,1,.1-1,14.9,14.9,0,0,1,.2-2.1,4.5,4.5,0,0,1,.1-1.1,13.6,13.6,0,0,1,.2-2v-1.1c.1-.7.1-1.5.2-2.3v-.7c.1-1,.1-2.1.2-3.1v-.5a20.9,20.9,0,0,1,.1-2.5v-7.2a16.2,16.2,0,0,1-.1-2.2v-.8c-.1-2.1-.2-4.1-.4-6.1v-.8c-.1-.7-.1-1.5-.2-2.2s-.1-.7-.1-1-.1-1.4-.2-2.1-.1-.6-.1-.9l-.3-2.2a2.2,2.2,0,0,0-.1-.8q-.3-3-.9-6v-.5c-.2-.9-.3-1.7-.5-2.5s-.1-.5-.1-.8a15.5,15.5,0,0,1-.4-2.1,2.9,2.9,0,0,1-.2-.9c-.2-.7-.3-1.5-.5-2.2s-.1-.5-.1-.7-.5-1.8-.7-2.7v-.2c-.2-1-.5-1.9-.7-2.8h0c-1.4-5.2-2.9-10.4-4.7-15.4H10.3c-1.9,5.5-3.6,11.2-5.1,17a177,177,0,0,0-3,70.4.6.6,0,0,0,.1.4,20,20,0,0,0,.4,2.4,1.3,1.3,0,0,0,.1.6,22.3,22.3,0,0,0,.4,2.3c0,.2.1.5.1.7s.3,1.4.5,2.2a2.4,2.4,0,0,0,.2.8c.1.7.3,1.4.4,2.1a2.9,2.9,0,0,1,.2.9c.2.7.3,1.3.5,2a7.4,7.4,0,0,0,.4,1.4,14.2,14.2,0,0,0,.5,2.2l.6,2.2.3.9.6,2,.3,1,.6,2,.3.9a11.8,11.8,0,0,0,.7,2l.3.9.7,2.1.2.4h0c.1.5.3.9.4,1.3H344c.1-.4.3-.8.4-1.3h0c.4-1,.8-2.1,1.1-3.1a.4.4,0,0,0,.1-.3c.5-1.4.9-2.8,1.4-4.1s.1-.4.1-.6l1.2-3.9a2.9,2.9,0,0,0,.2-.9c.5-1.5.9-3.1,1.3-4.7s.5-2,.7-3,.1-.7.2-1,.3-1.4.5-2.1"/></svg>