<svg xmlns="http://www.w3.org/2000/svg" viewBox="0 0 355 354.9"><defs><style>.a{fill:#e42918;}.b{fill:#0069b3;}.c{fill:#fff;}</style></defs><path class="a" d="M13.6,136.9A168.8,168.8,0,0,1,218,13.6C308.6,36,363.7,127.5,341.4,218s-114,145.7-204.5,123.3A168.8,168.8,0,0,1,13.6,136.9"/><path class="b" d="M177.6,350.6a164.8,164.8,0,0,1-29.7-2.6l-3.6-.6v-137H7.4l-.6-3.6a172.3,172.3,0,0,1,.6-61.6l.7-3.5H144.3V7.5l3.6-.6a170.9,170.9,0,0,1,29.4-2.6,175.7,175.7,0,0,1,32.3,3l3.5.7V141.7H346.9l.7,3.5a172.3,172.3,0,0,1,.5,61.6l-.6,3.6H213.1V347l-3.5.6A171.7,171.7,0,0,1,177.6,350.6Z"/><path class="c" d="M177.3,8.6a169.6,169.6,0,0,1,31.5,3V146H343.4a166.1,166.1,0,0,1,.4,60.1h-135V343.4a170,170,0,0,1-31.2,2.9,167.9,167.9,0,0,1-29-2.5V206.1H11.1a166.5,166.5,0,0,1,.5-60.1h137V11.1a171.1,171.1,0,0,1,28.7-2.5m0-8.6a181.1,181.1,0,0,0-30.2,2.6L140,3.8V137.4H4.5l-1.3,7a176.6,176.6,0,0,0-.6,63.2l1.2,7.1H140V351l7.1,1.3a184.7,184.7,0,0,0,30.5,2.6,180.3,180.3,0,0,0,32.8-3l7-1.4V214.7H351.1l1.2-7.1a174.3,174.3,0,0,0-.5-63.2l-1.3-7H217.4V4.4l-7-1.3A175,175,0,0,0,177.3,0Z"/></svg>