<svg xmlns="http://www.w3.org/2000/svg" viewBox="0 0 355 355"><defs><style>.a{fill:#f5f5f5;}.b{fill:#e42918;}.c{fill:#2a467d;}</style></defs><path class="a" d="M5.2,134.9C28.8,39.7,125-18.3,220.1,5.2S373.3,125,349.8,220.1,230,373.3,134.9,349.8-18.3,230,5.2,134.9"/><path class="b" d="M341.7,110H204.2v27.2H350.4a183.2,183.2,0,0,0-8.7-27.2M306.6,55.6H204.2V82.8H327.6a177.8,177.8,0,0,0-21-27.2M49.3,300.3H305.7a176.8,176.8,0,0,0,21.4-27.2H28a179.7,179.7,0,0,0,21.3,27.2M220.2,5.2c-5.4-1.3-10.7-2.3-16-3.1V28.5H274A179.1,179.1,0,0,0,220.2,5.2M354.5,164.4H204.2v27.2H354.4a164.8,164.8,0,0,0,.1-27.2M13.8,245.9H341.3a177.2,177.2,0,0,0,8.5-25.8l.3-1.4H4.9a169.6,169.6,0,0,0,8.9,27.2M134.9,349.8a171.8,171.8,0,0,0,31.4,4.8h22.6a176.9,176.9,0,0,0,83.6-27.2H82.5a175.5,175.5,0,0,0,52.4,22.4"/><path class="c" d="M190.7,181.6l-3.8-2.8-3.9,2.8,1.5-4.5-3.8-2.8h4.7l1.5-4.5,1.4,4.5h4.8l-3.8,2.8Zm-18.8-143,1.4,4.5-3.8-2.8-3.8,2.8,1.4-4.5-3.8-2.8H168l1.5-4.5,1.5,4.5h4.7Zm0,40.8,1.4,4.5-3.8-2.8-3.8,2.8,1.4-4.5-3.8-2.8H168l1.5-4.5,1.5,4.5h4.7Zm-.4,40.1L173,124l-3.9-2.8-3.8,2.8,1.5-4.5-3.9-2.8h4.8l1.4-4.5,1.5,4.5h4.7Zm1.1,44-3.8-2.8-3.8,2.8,1.4-4.5-3.8-2.8h4.7l1.5-4.5,1.4,4.5H175l-3.8,2.8ZM153.8,58.4l1.4,4.5-3.8-2.8-3.9,2.8,1.5-4.5-3.8-2.8h4.7l1.5-4.5,1.5,4.5h4.7Zm0,39.6,1.4,4.5-3.8-2.8-3.9,2.8L149,98l-3.8-2.8h4.7l1.5-4.5,1.5,4.5h4.7Zm0,40.4,1.4,4.6-3.8-2.8-3.9,2.8,1.5-4.6-3.8-2.7h4.7l1.5-4.6,1.5,4.6h4.7Zm1.4,43.2-3.8-2.8-3.9,2.8,1.5-4.5-3.8-2.8h4.7l1.5-4.5,1.5,4.5h4.7l-3.8,2.8Zm-18.8-143,1.4,4.5L134,40.3l-3.8,2.8,1.4-4.5-3.8-2.8h4.7l1.5-4.5,1.5,4.5h4.7Zm0,40.8,1.4,4.5L134,81.1l-3.8,2.8,1.4-4.5-3.8-2.8h4.7l1.5-4.5,1.5,4.5h4.7Zm-.4,40.1,1.5,4.5-3.9-2.8-3.8,2.8,1.5-4.5-3.9-2.8h4.8l1.4-4.5,1.5,4.5h4.8Zm1.1,44-3.8-2.8-3.8,2.8,1.4-4.5-3.8-2.8h4.7l1.5-4.5,1.5,4.5h4.7l-3.8,2.8ZM118.3,18.8l1.4,4.5-3.8-2.8-3.8,2.8,1.4-4.5L109.7,16h4.7l1.5-4.5,1.5,4.5h4.7Zm0,39.6,1.4,4.5-3.8-2.8-3.8,2.8,1.4-4.5-3.8-2.8h4.7l1.5-4.5,1.5,4.5h4.7Zm0,39.6,1.4,4.5-3.8-2.8-3.8,2.8,1.4-4.5-3.8-2.8h4.7l1.5-4.5,1.5,4.5h4.7Zm0,40.4,1.4,4.6-3.8-2.8-3.8,2.8,1.4-4.6-3.8-2.7h4.7l1.5-4.6,1.5,4.6h4.7Zm1.4,43.2-3.8-2.8-3.8,2.8,1.4-4.5-3.8-2.8h4.7l1.5-4.5,1.5,4.5h4.7l-3.8,2.8ZM100.9,37.1l1.5,4.6-3.9-2.8-3.8,2.8,1.5-4.6-3.9-2.7H97l1.5-4.5,1.5,4.5h4.7Zm0,40.9,1.5,4.5-3.9-2.8-3.8,2.8L96.2,78l-3.9-2.8H97l1.5-4.5,1.5,4.5h4.7Zm-.4,40,1.5,4.5-3.8-2.8-3.9,2.8,1.5-4.5L92,115.2h4.7l1.5-4.5,1.4,4.5h4.8Zm1.2,44.1-3.9-2.8L94,162.1l1.4-4.5-3.8-2.8h4.7l1.5-4.5,1.5,4.5H104l-3.8,2.8ZM82.8,58.4l1.5,4.5-3.9-2.8-3.8,2.8,1.5-4.5-3.9-2.8H79l1.4-4.5,1.5,4.5h4.7Zm0,39.6,1.5,4.5-3.9-2.8-3.8,2.8L78.1,98l-3.9-2.8H79l1.4-4.5,1.5,4.5h4.7Zm0,40.4,1.5,4.6-3.9-2.8L76.6,143l1.5-4.6-3.9-2.7H79l1.4-4.6,1.5,4.6h4.7Zm1.5,43.2-3.9-2.8-3.8,2.8,1.5-4.5-3.9-2.8H79l1.4-4.5,1.5,4.5h4.7l-3.8,2.8ZM65.4,77.6l1.5,4.5L63,79.3l-3.8,2.8,1.5-4.5-3.9-2.8h4.8L63,70.3l1.5,4.5h4.8Zm-.3,40,1.4,4.6-3.8-2.8-3.8,2.8,1.4-4.6-3.8-2.7h4.7l1.5-4.6,1.4,4.6h4.8Zm1.1,44.1-3.9-2.8-3.8,2.8,1.5-4.5-3.9-2.8h4.8l1.4-4.5,1.5,4.5h4.7l-3.8,2.8ZM149.9,16l1.5-4.5,1.5,4.5h4.7l-3.8,2.8,1.4,4.5-3.8-2.8-3.9,2.8,1.5-4.5L145.2,16Zm35.5,119.7,1.5-4.6,1.4,4.6h4.8l-3.8,2.7,1.4,4.6-3.8-2.8L183,143l1.5-4.6-3.8-2.7Zm0-40.5,1.5-4.5,1.4,4.5h4.8L189.3,98l1.4,4.5-3.8-2.8-3.9,2.8,1.5-4.5-3.8-2.8Zm0-39.6,1.5-4.5,1.4,4.5h4.8l-3.8,2.8,1.4,4.5-3.8-2.8L183,62.9l1.5-4.5-3.8-2.8Zm0-39.6,1.5-4.5,1.4,4.5h4.8l-3.8,2.8,1.4,4.5-3.8-2.8L183,23.3l1.5-4.5L180.7,16ZM47.3,98l1.5,4.5-3.9-2.8-3.8,2.8L42.6,98l-3.9-2.8h4.8l1.4-4.5,1.5,4.5h4.8Zm0,40.4,1.5,4.6-3.9-2.8L41.1,143l1.5-4.6-3.9-2.7h4.8l1.4-4.6,1.5,4.6h4.8Zm1.5,43.2-3.9-2.8-3.8,2.8,1.5-4.5-3.9-2.8h4.8l1.4-4.5,1.5,4.5h4.8l-3.9,2.8ZM29.6,116.9l1.4,4.6-3.8-2.8-3.8,2.8,1.4-4.6L21,114.2h4.7l1.5-4.5,1.5,4.5h4.7ZM30.7,161l-3.8-2.8L23,161l1.5-4.5-3.9-2.8h4.8l1.5-4.5,1.4,4.5h4.8l-3.9,2.8ZM13.3,181.6l-3.8-2.8-3.9,2.8,1.5-4.5-3.8-2.8H8l1.5-4.5,1.4,4.5h4.8l-3.9,2.8ZM204.2,2.1,187.7.2,155.8,1.3a178,178,0,0,0-89.6,38l.7,2-1.7-1.2A174.2,174.2,0,0,0,48.5,55.6h2.7l-3.9,2.8,1.5,4.5-3.9-2.8-1.5,1.1A160.6,160.6,0,0,0,33.2,74.1h.6l-1.2.8-2.2,3.3,1,3.2-2.1-1.5a177,177,0,0,0-24.1,55c0,.2-.1.5-.1.8H8l1.5-4.6,1.4,4.6h4.8l-3.9,2.7,1.5,4.6-3.8-2.8L5.6,143l1.5-4.6-2.3-1.6a174.6,174.6,0,0,0-4.2,55H204.2Z"/></svg>